<?xml version="1.0" encoding="utf-8"?>
<!-- Generator: Adobe Illustrator 26.0.3, SVG Export Plug-In . SVG Version: 6.00 Build 0)  -->
<svg version="1.0" id="katman_1" xmlns="http://www.w3.org/2000/svg" xmlns:xlink="http://www.w3.org/1999/xlink" x="0px" y="0px"
	 viewBox="0 0 1585.8 1086.6" style="enable-background:new 0 0 1585.8 1086.6;" xml:space="preserve">
<style type="text/css">
	.st0{fill:#34A853;}
	.st1{fill:#FFBB00;}
	.st2{fill:#FE2C25;}
	.st3{fill-rule:evenodd;clip-rule:evenodd;fill:#4285F4;}
</style>
<g vector-effect="non-scaling-stroke">
	<g id="rWN1jLPlw46ISWbh5Tmq1" transform="matrix(1 0 0 1 0 -8.18)">
		<path vector-effect="non-scaling-stroke" class="st0" d="M1181.6,451.8H336.1V311.4c0-77.2,61.4-140.4,136.4-140.4h572.8
			c75,0,136.4,63.2,136.4,140.4V451.8z"/>
	</g>
	<g id="_x35_JAGFK6vTcOBDWET5j7HA" transform="matrix(1 0 0 1 0 -4.09)">
		<path vector-effect="non-scaling-stroke" class="st1" d="M1181.6,567H336.1V426.6c0-77.2,61.4-140.3,136.4-140.3h572.8
			c75,0,136.4,63.1,136.4,140.3V567z"/>
	</g>
	<g id="O61mRXgZ76916z4p_sRXX" transform="matrix(1 0 0 1 0 0)">
		<path vector-effect="non-scaling-stroke" class="st2" d="M1181.6,682.2H336.1V541.9c0-77.2,61.4-140.4,136.4-140.4h572.8
			c75,0,136.4,63.2,136.4,140.4V682.2z"/>
	</g>
	<g id="nK6POBbTEfGvlKBt_0cpt" transform="matrix(1 0 0 1 0 5.3)">
		<path vector-effect="non-scaling-stroke" class="st3" d="M336.1,472l536.6,132c63.4,15.5,130.9,1.4,182.7-39.3l126.1-98.2v308.8
			c0,77.2-61.4,140.4-136.4,140.4H472.4c-75,0-136.4-63.2-136.4-140.4V472z"/>
	</g>
</g>
</svg>
